<?xml version="1.0" encoding="utf-8"?>
<!-- Generator: Adobe Illustrator 24.0.1, SVG Export Plug-In . SVG Version: 6.00 Build 0)  -->
<svg version="1.0" id="Capa_1" xmlns="http://www.w3.org/2000/svg" xmlns:xlink="http://www.w3.org/1999/xlink" x="0px" y="0px"
	 viewBox="0 0 76 73.9" style="enable-background:new 0 0 76 73.9;" xml:space="preserve">
<style type="text/css">
	.st0{fill:#B93231;}
	.st1{fill:#693481;}
	.st2{fill:#EB6460;}
	.st3{fill:#814996;}
</style>
<g>
	<g>
		<path class="st0" d="M36,34.9c0,0-8.9-1.1-13.5-7.6s-19.9-6.5-18,12.1s13.8,31.3,37.2,32.3C65,72.6,76,44.6,73.4,30.5
			c-2.7-14-15.9-6.5-21.4-2.7S43.8,35.8,36,34.9z"/>
		<circle class="st1" cx="17" cy="8.4" r="5.2"/>
		<circle class="st1" cx="59.7" cy="8.4" r="5.2"/>
	</g>
	<g>
		<path class="st2" d="M34,32.9c0,0-8.9-1.1-13.5-7.6s-19.9-6.5-18,12.1s13.8,31.3,37.2,32.3C63,70.6,74,42.6,71.4,28.5
			S55.5,22,50,25.8S41.8,33.8,34,32.9z"/>
		<circle class="st3" cx="16.2" cy="7.4" r="5.2"/>
		<circle class="st3" cx="58.9" cy="7.4" r="5.2"/>
	</g>
</g>
</svg>
