<?xml version="1.0" encoding="utf-8"?>
<!-- Generator: Adobe Illustrator 24.0.1, SVG Export Plug-In . SVG Version: 6.00 Build 0)  -->
<svg version="1.0" id="Capa_1" xmlns="http://www.w3.org/2000/svg" xmlns:xlink="http://www.w3.org/1999/xlink" x="0px" y="0px"
	 viewBox="0 0 619 459.7" style="enable-background:new 0 0 619 459.7;" xml:space="preserve">
<style type="text/css">
	.st0{fill:#EC6460;}
</style>
<g>
	<path class="st0" d="M610.4,0H8.6C3.8,0,0,3.8,0,8.6v178.3c0,4.7,3.8,8.6,8.6,8.6h18.9v255.7c0,4.7,3.8,8.6,8.6,8.6h10.6
		c4.7,0,8.6-3.8,8.6-8.6V195.4h517v255.7c0,4.7,3.8,8.6,8.6,8.6h10.6c4.7,0,8.6-3.8,8.6-8.6V195.4h10.4c4.7,0,8.6-3.8,8.6-8.6V8.6
		C619,3.8,615.2,0,610.4,0z M143.4,23.2v149H23.2v-149H143.4z M595.8,23.2v149H476.7v-149H595.8z"/>
	<path class="st0" d="M38.2,104.5l0.3,0.2l9.8,0l9.8,0l0,15.2l0,15.2l0.2,0.2c0.2,0.3,0.5,0.5,0.8,0.5c0.4,0.1,40.9,0.1,41.3,0
		c0.3-0.1,0.6-0.2,0.8-0.5l0.2-0.2l0-15.2l0-15.2l9.7,0c5.4,0,9.9,0,10.1,0c0.4-0.1,0.8-0.3,1-0.6c0.2-0.3,0.2-0.8,0.1-1.1
		c-0.1-0.2-9.6-11.2-37.6-43.6c-2.5-2.8-4.3-4.9-4.5-5c-0.3-0.2-0.9-0.2-1.2,0.1c-0.2,0.1-6.4,7.3-13.8,16.1
		c-7.4,8.7-16.7,19.6-20.5,24c-3.8,4.5-7,8.2-7,8.4c-0.1,0.3-0.2,0.8,0,1.1C37.9,104.2,38,104.4,38.2,104.5z"/>
	<path class="st0" d="M495.9,104.5l0.3,0.2l9.8,0l9.8,0l0,15.2l0,15.2l0.2,0.2c0.2,0.3,0.5,0.5,0.8,0.5c0.4,0.1,40.9,0.1,41.3,0
		c0.3-0.1,0.6-0.3,0.8-0.5l0.2-0.2l0-15.2l0-15.2l9.8,0c5.4,0,9.9,0,10.1,0c0.4-0.1,0.8-0.3,1-0.6c0.2-0.3,0.2-0.8,0.1-1.1
		c-0.1-0.2-9.6-11.2-37.6-43.6c-2.5-2.8-4.3-4.9-4.5-5c-0.3-0.2-0.9-0.2-1.2,0.1c-0.2,0.1-6.3,7.3-13.8,16.1
		c-7.4,8.7-16.7,19.6-20.5,24c-3.8,4.5-7,8.3-7.1,8.4c-0.1,0.3-0.1,0.8,0,1.1C495.6,104.2,495.8,104.4,495.9,104.5z"/>
</g>
</svg>
