<?xml version="1.0" encoding="utf-8"?>
<!-- Generator: Adobe Illustrator 24.0.1, SVG Export Plug-In . SVG Version: 6.00 Build 0)  -->
<svg version="1.0" id="Capa_1" xmlns="http://www.w3.org/2000/svg" xmlns:xlink="http://www.w3.org/1999/xlink" x="0px" y="0px"
	 viewBox="0 0 67.9 68" style="enable-background:new 0 0 67.9 68;" xml:space="preserve">
<style type="text/css">
	.st0{fill:#FFFFFF;}
</style>
<g>
	<path class="st0" d="M34,0C15.3-0.1,0,15.2,0,34c0,18.7,15.2,33.9,33.9,34c18.7,0.1,34-15.2,34-34C68,15.3,52.8,0.1,34,0
		 M33.9,62.1C18.4,62,5.8,49.4,5.9,34C5.9,18.4,18.5,5.8,34,5.9C49.6,5.9,62.1,18.5,62.1,34C62.1,49.5,49.4,62.2,33.9,62.1"/>
	<path class="st0" d="M30.5,27.3c0-2.7,0-5.4,0-8.1c0-2,1.7-3.2,3.5-2.6c1.1,0.4,1.7,1.3,1.7,2.6c0,3.9,0,7.7,0,11.6
		c0,1.2,0,2.3,0,3.5c0,0.5,0.2,0.7,0.6,1c4.3,2.5,8.6,5.1,12.9,7.7c1.3,0.8,1.7,2,1.2,3.3c-0.7,1.4-2.3,1.9-3.7,1
		c-2.5-1.5-5-3-7.5-4.5c-2.2-1.3-4.4-2.7-6.6-4c-1.4-0.8-2-1.9-2-3.5C30.5,32.6,30.5,29.9,30.5,27.3"/>
</g>
</svg>
