<?xml version="1.0" encoding="utf-8"?>
<!-- Generator: Adobe Illustrator 24.0.1, SVG Export Plug-In . SVG Version: 6.00 Build 0)  -->
<svg version="1.0" id="Capa_1" xmlns="http://www.w3.org/2000/svg" xmlns:xlink="http://www.w3.org/1999/xlink" x="0px" y="0px"
	 viewBox="0 0 57.8 73.7" style="enable-background:new 0 0 57.8 73.7;" xml:space="preserve">
<style type="text/css">
	.st0{fill:#FFFFFF;}
</style>
<g>
	<path class="st0" d="M2.6,73.7c-0.7-0.4-1.4-0.7-1.8-1.4c-0.2-0.4-0.3-0.9-0.5-1.4V16.4c0.1-0.1,0.2-0.2,0.2-0.3
		c0.4-1.7,1.2-2.3,2.8-2.3c0.2,0,0.4,0,0.6,0c12.2,0,24.4,0,36.7,0c0.3,0,0.7,0,1,0c1.2,0.1,2,0.7,2.4,1.8c0.2,0.5,0.2,1.1,0.2,1.6
		c0,12.3,0,40.6,0,52.9c0,0.3,0,0.5,0,0.8c-0.1,1.1-0.5,1.9-1.5,2.5c-0.2,0.1-0.3,0.2-0.5,0.3H2.6z M6.2,19.5v48.3
		c0,0,0,0.1,0.1,0.1c0,0,0.1,0.1,0.1,0.1c10.6,0,21.1,0,31.7,0c0.1,0,0.2-0.1,0.3-0.1c0.2-1,0.3-45.9,0.1-48.4H6.2z"/>
	<path class="st0" d="M5.3,0C4.2,1.2,3,2.4,1.8,3.6C1.3,4.1,0.7,4.7,0,5.3c0.2,0.4,0.3,0.7,0.5,1c1.5,1.5,2.9,3,4.4,4.4
		c0.3,0.3,0.6,0.5,1.1,0.3c0.3-1.1,0-2.2,0.2-3.3C7.1,7.4,41.1,7.3,43,7.6v3.2c0.5,0.5,0.9,0.4,1.2,0c0.5-0.5,1-1,1.4-1.4
		C46.8,8.1,48,7,49.3,5.7C49,5.3,48.7,5,48.5,4.7c-1.6-1.6-3.1-3.1-4.7-4.7l-0.5,0C43.2,0.5,43,1,43,1.5c-0.1,0.7,0.1,1.5-0.1,2.2
		H6.1c0-0.9,0-1.7,0-2.5c0-0.4-0.2-0.8-0.3-1.2L5.3,0z"/>
	<path class="st0" d="M57.8,65c-0.1-0.1-0.3-0.3-0.5-0.5h-3.2V14.9h3.3c0.4-0.4,0.3-0.8,0.1-1.1c-1.7-1.7-3.4-3.4-5.1-5.1
		c-0.9,0.5-4.8,4.3-5.7,5.6c0.1,0.5,0.4,0.6,0.8,0.6c0.9,0,1.8,0,2.6,0c0.4,0.5,0.3,1,0.3,1.4c0,5.7,0,27.4,0,33.1v13.6v1.5H47
		c-0.2,0.2-0.3,0.4-0.4,0.5c1.9,1.9,3.7,3.8,5.6,5.7c0.2-0.2,0.6-0.4,0.8-0.7c1.5-1.4,2.9-2.9,4.3-4.3c0.1-0.1,0.3-0.3,0.5-0.4V65z"
		/>
</g>
</svg>
