<?xml version="1.0" encoding="utf-8"?>
<!-- Generator: Adobe Illustrator 24.0.1, SVG Export Plug-In . SVG Version: 6.00 Build 0)  -->
<svg version="1.0" id="Capa_1" xmlns="http://www.w3.org/2000/svg" xmlns:xlink="http://www.w3.org/1999/xlink" x="0px" y="0px"
	 viewBox="0 0 95.9 73.9" style="enable-background:new 0 0 95.9 73.9;" xml:space="preserve">
<style type="text/css">
	.st0{fill:#FFFFFF;}
</style>
<g>
	<path class="st0" d="M38.5,48c-2.1-3.5-4.3-6.8-6.2-10.3c-1.9-3.5-3.5-7.1-4.1-11.1C27,19.4,29,12.9,34.1,7.5
		c6.4-6.8,14.4-9.1,23.4-6.5c9.1,2.6,14.5,9,16.4,18.2c0.9,4.6,0,9-1.7,13.3c-2,5.1-4.9,9.7-8,14.2c-0.3,0.4-0.5,0.7-0.9,1.3h1.4
		c12.7,0,15.2,0,27.8,0c1.2,0,2.2,0.2,2.9,1.3c0.8,1.1,0.7,2.2-0.3,3.7c-3.8,5.3-7.5,10.7-11.3,16c-0.8,1.2-1.7,2.4-2.5,3.5
		c-0.6,0.9-1.4,1.4-2.5,1.3c-0.4,0-0.7,0-1.1,0H4c-0.5,0-1,0-1.4,0c-2.1-0.2-3.2-2.4-2.2-4.2c0.2-0.3,0.5-0.7,0.7-1
		c5.4-6.3,10.7-12.7,16.1-19c1-1.1,2-1.6,3.5-1.6c7.9,0,8.8,0,16.7,0H38.5z M39.9,10c-0.2,0.1-0.5,0.1-0.6,0.3
		c-4.1,3.8-6.1,8.5-5.7,14.2c0.3,3.6,1.7,6.8,3.3,9.9c3.6,6.9,8.3,13.1,13.3,19c0.2,0.3,0.5,0.5,0.8,0.9c1.4-1.7,2.7-3.4,4-5
		c4.6-5.6,8.6-11.5,11.5-18.2c1.4-3.3,2.3-6.8,1.7-10.4C66.5,9,54.1,2.4,43.4,7.5C42.1,8.1,40.8,8.7,39.9,10 M9,68.2
		c0.4,0,0.5,0,0.7,0c27.9,0,38.8,0,66.8,0c0.7,0,1.1-0.2,1.5-0.8c3-4.3,6-8.5,9-12.8c0.2-0.2,0.3-0.5,0.5-0.8
		c-0.3,0-0.4-0.1-0.6-0.1c-12.5,0-14.8,0-27.2,0c-0.6,0-0.9,0.3-1.3,0.7c-1.6,1.9-3.2,3.8-4.9,5.6c-1.6,1.8-3.2,1.8-4.8,0
		c-1.6-1.8-3.2-3.7-4.8-5.5c-0.5-0.5-0.9-0.8-1.6-0.8c-9,0-11.1,0-20.1,0c-0.7,0-1.2,0.2-1.6,0.8c-3.6,4.3-7.2,8.6-10.9,12.9
		C9.5,67.6,9.3,67.8,9,68.2"/>
	<path class="st0" d="M51,12.9c5.7,0,10.3,4.7,10.3,10.3c0,5.6-4.7,10.3-10.4,10.3c-5.7,0-10.3-4.7-10.3-10.4
		C40.7,17.5,45.3,12.9,51,12.9 M55.6,23.2c0-2.6-2.1-4.6-4.7-4.6c-2.6,0-4.6,2.1-4.6,4.7c0,2.5,2.1,4.5,4.6,4.6
		C53.6,27.9,55.6,25.8,55.6,23.2"/>
</g>
</svg>
