<?xml version="1.0" encoding="utf-8"?>
<!-- Generator: Adobe Illustrator 24.0.1, SVG Export Plug-In . SVG Version: 6.00 Build 0)  -->
<svg version="1.0" id="Capa_1" xmlns="http://www.w3.org/2000/svg" xmlns:xlink="http://www.w3.org/1999/xlink" x="0px" y="0px"
	 viewBox="0 0 935.4 174.6" style="enable-background:new 0 0 935.4 174.6;" xml:space="preserve">
<style type="text/css">
	.st0{fill:#FFFFFF;}
</style>
<g>
	<path class="st0" d="M89.2,39.5c-8.8-7.1-18.1-10.6-27.8-10.6c-2.8,0-5.6,0.3-8.4,0.8c-3.6,0.6-6.9,1.8-10,3.5
		c-3.8,2.1-5.9,4.5-6.5,7.4c-0.1,0.4-0.1,0.9-0.1,1.3c0,4.2,3.9,8.5,11.7,12.8c6,3.3,12.6,6.2,19.9,8.6c14.3,4.5,25.9,9.9,34.8,16.1
		c11.7,8.2,17.5,16.9,17.5,26.3c0,1.5-0.2,3.1-0.4,4.8c-1.7,8.2-7.4,14.9-17,20c-7.7,4.2-16.6,6.7-26.6,7.5
		c-2.9,0.2-5.6,0.4-8.3,0.4c-19.8,0-38.8-5.9-56.8-17.7c-3.6-2.3-5.7-5.2-6.4-8.7c-0.2-0.8-0.4-1.6-0.4-2.3c0-2,0.7-4,2-6
		c2.5-3.8,6.4-6.3,11.7-7.4c1.4-0.4,3-0.5,4.8-0.5c4.2,0,8.1,1.1,11.5,3.4c11.1,7.3,22.3,10.9,33.6,10.9c1.5,0,3-0.1,4.7-0.2
		c2.3-0.2,4.8-0.7,7.7-1.7c2.6-0.8,3.9-1.6,3.9-2.4c0-1.1-1-2.4-3-3.9c-5.1-4.4-13.7-8.5-25.7-12.4c-15.7-5-28.1-10.9-37.2-17.9
		C6,62.4,0,52.6,0,42.1c0-1.7,0.1-3.3,0.4-5c1.6-9,7-16.7,16.2-23.3c8.1-5.7,17.6-9.6,28.5-11.6c5.6-1,11.2-1.5,16.7-1.5
		c19.4,0,37.1,6.4,53.1,19.1c3.2,2.4,4.9,5.3,5.3,8.6c0.1,0.4,0.1,0.8,0.1,1.3c0,2.5-0.9,4.8-2.7,7.1c-3,3.8-7.3,6.1-12.7,6.7
		c-0.9,0.2-1.8,0.3-2.8,0.3C97.1,43.8,92.8,42.3,89.2,39.5z"/>
	<path class="st0" d="M324.7,133.1c-3.4,2.6-7.4,3.9-12.1,3.9h-0.3c-5.6-0.2-10.1-2-13.5-5.6c-2.3-2.4-3.5-5-3.5-7.7V47.3
		c0.1-2.9,1.4-5.6,3.9-8c3.5-3.4,8-5.1,13.4-5.1h0.4c5.6,0.1,10.2,2,13.6,5.6c2.3,2.4,3.4,7.2,3.4,14.4
		c7.2-13.9,19.6-20.8,37.3-20.8h0.5c6,0.1,11.8,1.2,17.6,3.4c4.2,1.8,7.2,4.5,8.8,8c0.5,1.4,0.8,2.7,0.8,3.9c0,1.3-0.3,2.5-0.8,3.7
		c-1.4,3.5-4.2,6.1-8.4,8c-2.7,1.1-5.4,1.6-8.2,1.6c-2.7,0-5.3-0.5-7.9-1.4c-0.9-0.4-1.6-0.6-2.2-0.6h-0.3
		c-6.3,0-12.7,4.2-19.4,12.5c-10,12.4-15.9,29.4-17.5,50.9c0,1-0.2,2-0.7,3C329,128.8,327.4,131.1,324.7,133.1z"/>
	<path class="st0" d="M408,36.8c0.1-2.9,1.3-5.5,3.9-8c3.6-3.5,8.2-5.2,13.7-5.2c5.6,0.1,10.1,1.9,13.7,5.5
		c2.2,2.5,3.3,6.4,3.3,11.9c9.6-12.1,21.4-18.2,35.4-18.2h0.7c3.8,0.1,7.4,0.5,11,1.4c16.5,4.2,28.1,14.2,34.8,30.1
		c1.7,4.1,2.8,8.1,3.3,12.2c0.3,2.1,0.4,4.1,0.4,6.1c0,10.5-3.9,19.9-11.7,28.2c-8.7,9.2-20.6,15.7-35.7,19.5
		c-15.2,3.8-27.9,5.9-38.2,6.1v35.1c0,2.8-1.3,5.4-3.9,7.8c-3.4,3.5-7.9,5.3-13.5,5.3h-0.2c-5.6,0-10.2-1.8-13.8-5.5
		c-2.3-2.4-3.5-5-3.5-7.9V36.8z M470.8,95c6.9-1.7,12.3-4.3,16.2-7.8c4.4-3.9,6.6-9,6.6-15.1c0-1.1-0.1-2.2-0.2-3.3
		c-0.8-5.6-3.1-10.5-6.9-14.7c-3-3.2-5.7-4.9-8.2-4.9h-0.3c-6.2,0-12.7,4.2-19.4,12.5c-8.5,10.5-13.8,23.3-16,38.2
		C449.6,99.6,458.9,98,470.8,95z"/>
	<path class="st0" d="M574,133.1c-3.4,2.6-7.4,3.9-12.1,3.9h-0.3c-5.6-0.2-10.1-2-13.5-5.6c-2.3-2.4-3.5-5-3.5-7.7V47.3
		c0.1-2.9,1.4-5.6,3.9-8c3.5-3.4,8-5.1,13.4-5.1h0.4c5.6,0.1,10.2,2,13.6,5.6c2.3,2.4,3.4,7.2,3.4,14.4
		c7.2-13.9,19.6-20.8,37.3-20.8h0.5c6,0.1,11.8,1.2,17.6,3.4c4.2,1.8,7.2,4.5,8.8,8c0.5,1.4,0.8,2.7,0.8,3.9c0,1.3-0.3,2.5-0.8,3.7
		c-1.4,3.5-4.2,6.1-8.4,8c-2.7,1.1-5.4,1.6-8.2,1.6c-2.7,0-5.3-0.5-7.9-1.4c-0.9-0.4-1.6-0.6-2.2-0.6h-0.3
		c-6.3,0-12.7,4.2-19.4,12.5c-10,12.4-15.9,29.4-17.5,50.9c0,1-0.2,2-0.7,3C578.3,128.8,576.6,131.1,574,133.1z"/>
	<path class="st0" d="M693.1,13.4c-0.4,10.3-6.3,15.4-17.8,15.4h-0.4c-11.6-0.3-17.4-5.3-17.4-15V13c0.2-2.9,1.6-5.6,4.2-8.2
		c3.7-3.2,8.3-4.8,13.7-4.8h0.4c5.7,0.1,10,1.6,12.8,4.5c3,3.1,4.6,6,4.6,8.7V13.4z M692.1,123.6c0,2.8-1.3,5.5-3.9,8
		c-3.6,3.3-8.1,5-13.5,5h-0.4c-5.7-0.2-10.2-2.1-13.6-5.6c-2.3-2.3-3.4-4.8-3.4-7.5V45.5c0.1-2.8,1.4-5.4,3.9-7.9
		c3.5-3.4,8-5.1,13.4-5.1h0.4c5.7,0.1,10.3,1.9,13.7,5.6c2.2,2.4,3.3,4.9,3.3,7.6V123.6z"/>
	<path class="st0" d="M756.1,100c-12.9-3.8-23.4-8.5-31.6-14.1c-10.6-7.4-15.9-15.6-15.9-24.5c0-1.1,0.1-2.3,0.3-3.4
		c1.1-7.7,5.8-14.3,14-19.9c7-4.7,15.2-7.9,24.7-9.6c5-0.8,9.9-1.3,14.7-1.3c16.5,0,31.6,5,45.4,15.1c3.1,2.3,4.9,5,5.5,8.2V52
		c0,2-0.7,4-2.1,6c-2.7,3.8-6.7,6-12.1,6.8c-1.1,0.2-2.2,0.3-3.2,0.3c-4.4,0-8.3-1.2-11.7-3.7c-7-5.1-14.4-7.6-22.1-7.6
		c-2.3,0-4.7,0.2-7.3,0.6c-2.2,0.4-4.6,1.2-7.3,2.4c-2.5,1.1-3.9,2.4-4,3.9v0.5c0,1.1,0.9,2.4,2.6,3.9c4.1,3.6,11.4,6.9,22,9.9
		c12.1,3.6,22,7.9,29.5,12.6c10.6,6.9,15.9,14.3,15.9,22.2c0,1.1-0.1,2.2-0.3,3.4c-1.4,7.1-6.4,12.9-15.1,17.4
		c-6.6,3.5-14.4,5.6-23.2,6.3c-2.5,0.2-5,0.4-7.5,0.4c-16.7,0-32.8-4.6-48.1-13.7c-3.5-2.1-5.7-4.8-6.5-8c-0.2-1-0.4-1.9-0.4-2.7
		c0-1.7,0.7-3.7,2.2-6.1c1.8-3,5.1-5.1,9.9-6.2c1.7-0.5,3.5-0.8,5.5-0.8c3.8,0,7.2,1,10.4,2.9c9,5.4,18.2,8.2,27.5,8.2
		c0.6,0,1.2,0,1.9-0.1c5.7-0.2,8.6-0.5,8.9-0.9C777.3,107.2,769.9,103.9,756.1,100z"/>
	<path class="st0" d="M868.2,106.2c4.5,3.2,10.1,4.8,16.8,4.8c0.5,0,1.2,0,1.9-0.1c7.9-0.4,14.7-2.4,20.4-6
		c3.1-2.1,6.7-3.1,10.8-3.1c1.5,0,3,0.1,4.6,0.4c5.1,1.1,8.9,3.5,11.2,7.3c1.1,1.8,1.7,3.6,1.7,5.4c0,0.7-0.1,1.4-0.3,2.2
		c-0.7,3.3-2.8,6-6.2,8.2c-10.9,7.1-23.6,11.1-37.8,12.1c-2.2,0.1-4.3,0.2-6.3,0.2c-15.2,0-28.3-3.9-39.5-11.7
		c-12.6-8.7-19.8-20.7-21.6-36.1c-0.3-2.3-0.4-4.5-0.4-6.6c0-10.2,3-19.4,9-27.7c8.1-11.2,19.6-18.2,34.5-21
		c4.4-0.9,8.8-1.3,13.2-1.3c7.7,0,15.3,1.3,22.9,4c13.3,4.8,21.7,12.1,25.2,21.9c1.2,3.2,1.8,6.3,1.8,9.2c0,1.1-0.1,2.2-0.2,3.2
		c-1.1,9.5-9.6,16.1-25.3,19.6c-7.2,1.6-15.5,2.3-24.8,2.3c-2,0-4.1,0-6.2-0.1c-7.1-0.2-11.5-0.4-13.4-0.4c-0.7,0-1,0-1,0.1
		C859.5,97.8,862.6,102.2,868.2,106.2z M895,66.4c-1-2.8-3.5-4.7-7.4-5.7c-3.1-0.8-5.8-1.2-8.2-1.2c-1.5,0-2.9,0.2-4.3,0.4
		c-5.7,1.1-10.5,4.5-14.3,10c2.3,0.1,4.6,0.2,6.9,0.2C878,70.1,887.1,68.9,895,66.4z"/>
	<g>
		<path class="st0" d="M197.6,63.3c0,0-18.2-2.3-27.4-15.5c-9.3-13.1-40.6-13.1-36.7,24.7c3.9,37.9,28.2,63.8,75.7,65.7
			c47.5,1.9,69.9-55.3,64.5-83.9c-5.4-28.6-32.5-13.1-43.7-5.4C218.8,56.8,213.4,65.3,197.6,63.3z"/>
		<circle class="st0" cx="161.4" cy="11.4" r="10.6"/>
		<circle class="st0" cx="248.4" cy="11.4" r="10.6"/>
	</g>
</g>
</svg>
