<?xml version="1.0" encoding="utf-8"?>
<!-- Generator: Adobe Illustrator 24.0.1, SVG Export Plug-In . SVG Version: 6.00 Build 0)  -->
<svg version="1.0" id="Capa_1" xmlns="http://www.w3.org/2000/svg" xmlns:xlink="http://www.w3.org/1999/xlink" x="0px" y="0px"
	 viewBox="0 0 461.2 87.7" style="enable-background:new 0 0 461.2 87.7;" xml:space="preserve">
<style type="text/css">
	.st0{fill:#693481;}
	.st1{fill:#B93231;}
	.st2{fill:#814996;}
	.st3{fill:#EB6460;}
</style>
<g>
	<g>
		<path class="st0" d="M45.8,21.4c-4.3-3.5-8.9-5.2-13.6-5.2c-1.4,0-2.7,0.1-4.1,0.4c-1.8,0.3-3.4,0.9-4.9,1.7
			c-1.8,1-2.9,2.2-3.2,3.6c0,0.2,0,0.4,0,0.7c0,2.1,1.9,4.2,5.8,6.3c2.9,1.6,6.2,3.1,9.8,4.2c7,2.2,12.7,4.8,17.1,7.9
			c5.7,4,8.6,8.3,8.6,12.9c0,0.7-0.1,1.5-0.2,2.3c-0.9,4-3.6,7.3-8.4,9.8c-3.8,2.1-8.1,3.3-13.1,3.7c-1.4,0.1-2.8,0.2-4.1,0.2
			c-9.7,0-19-2.9-27.9-8.7c-1.8-1.1-2.8-2.6-3.1-4.3c-0.1-0.4-0.2-0.8-0.2-1.1c0-1,0.3-2,1-3c1.2-1.9,3.1-3.1,5.7-3.6
			c0.7-0.2,1.5-0.3,2.3-0.3c2.1,0,4,0.6,5.6,1.7c5.5,3.6,11,5.4,16.5,5.4c0.7,0,1.5,0,2.3-0.1c1.1-0.1,2.4-0.4,3.8-0.8
			c1.3-0.4,1.9-0.8,1.9-1.2c0-0.5-0.5-1.2-1.5-1.9c-2.5-2.2-6.7-4.2-12.6-6.1c-7.7-2.4-13.8-5.4-18.3-8.8C4.9,32.7,2,27.8,2,22.7
			c0-0.8,0.1-1.6,0.2-2.5c0.8-4.4,3.4-8.2,8-11.4c4-2.8,8.6-4.7,14-5.7c2.8-0.5,5.5-0.7,8.2-0.7c9.5,0,18.2,3.1,26.1,9.4
			c1.6,1.2,2.4,2.6,2.6,4.2c0,0.2,0,0.4,0,0.6c0,1.2-0.4,2.4-1.3,3.5c-1.5,1.9-3.6,3-6.3,3.3c-0.4,0.1-0.9,0.1-1.4,0.1
			C49.7,23.5,47.6,22.8,45.8,21.4z"/>
		<path class="st0" d="M161.4,67.3c-1.7,1.3-3.7,1.9-5.9,1.9h-0.1c-2.8-0.1-5-1-6.6-2.7c-1.1-1.2-1.7-2.4-1.7-3.8V25.2
			c0-1.4,0.7-2.7,1.9-3.9c1.7-1.7,3.9-2.5,6.6-2.5h0.2c2.8,0.1,5,1,6.7,2.7c1.1,1.2,1.7,3.5,1.7,7.1c3.5-6.8,9.6-10.2,18.3-10.2h0.3
			c2.9,0,5.8,0.6,8.6,1.7c2.1,0.9,3.5,2.2,4.3,3.9c0.3,0.7,0.4,1.3,0.4,1.9c0,0.6-0.1,1.2-0.4,1.8c-0.7,1.7-2.1,3-4.1,3.9
			c-1.3,0.5-2.7,0.8-4,0.8c-1.3,0-2.6-0.2-3.9-0.7c-0.4-0.2-0.8-0.3-1.1-0.3h-0.1c-3.1,0-6.3,2-9.5,6.1c-4.9,6.1-7.8,14.4-8.6,25
			c0,0.5-0.1,1-0.4,1.5C163.5,65.2,162.7,66.4,161.4,67.3z"/>
		<path class="st0" d="M202.3,20c0-1.4,0.7-2.7,1.9-3.9c1.8-1.7,4-2.6,6.7-2.6c2.7,0.1,5,1,6.7,2.7c1.1,1.2,1.6,3.2,1.6,5.9
			c4.7-6,10.5-8.9,17.4-8.9h0.4c1.8,0,3.7,0.3,5.4,0.7c8.1,2.1,13.8,7,17.1,14.8c0.9,2,1.4,4,1.6,6c0.1,1,0.2,2,0.2,3
			c0,5.2-1.9,9.8-5.7,13.8c-4.3,4.5-10.1,7.7-17.5,9.6c-7.5,1.9-13.7,2.9-18.8,3v17.2c0,1.4-0.6,2.7-1.9,3.8
			c-1.7,1.7-3.9,2.6-6.6,2.6h-0.1c-2.8,0-5-0.9-6.8-2.7c-1.1-1.2-1.7-2.5-1.7-3.9V20z M233.1,48.7c3.4-0.9,6.1-2.1,8-3.8
			c2.2-1.9,3.3-4.4,3.3-7.4c0-0.5,0-1.1-0.1-1.6c-0.4-2.7-1.5-5.1-3.4-7.2c-1.5-1.6-2.8-2.4-4-2.4h-0.1c-3.1,0-6.2,2-9.5,6.1
			c-4.2,5.2-6.8,11.4-7.8,18.8C222.7,50.9,227.3,50.1,233.1,48.7z"/>
		<path class="st0" d="M283.8,67.3c-1.7,1.3-3.7,1.9-5.9,1.9h-0.1c-2.8-0.1-5-1-6.6-2.7c-1.1-1.2-1.7-2.4-1.7-3.8V25.2
			c0-1.4,0.7-2.7,1.9-3.9c1.7-1.7,3.9-2.5,6.6-2.5h0.2c2.8,0.1,5,1,6.7,2.7c1.1,1.2,1.7,3.5,1.7,7.1c3.5-6.8,9.6-10.2,18.3-10.2h0.3
			c2.9,0,5.8,0.6,8.6,1.7c2.1,0.9,3.5,2.2,4.3,3.9c0.3,0.7,0.4,1.3,0.4,1.9c0,0.6-0.1,1.2-0.4,1.8c-0.7,1.7-2.1,3-4.1,3.9
			c-1.3,0.5-2.7,0.8-4,0.8c-1.3,0-2.6-0.2-3.9-0.7c-0.4-0.2-0.8-0.3-1.1-0.3h-0.1c-3.1,0-6.3,2-9.5,6.1c-4.9,6.1-7.8,14.4-8.6,25
			c0,0.5-0.1,1-0.4,1.5C285.9,65.2,285.1,66.4,283.8,67.3z"/>
		<path class="st0" d="M342.3,8.6c-0.2,5-3.1,7.6-8.8,7.6h-0.2c-5.7-0.1-8.5-2.6-8.5-7.4V8.4c0.1-1.4,0.8-2.7,2.1-4
			c1.8-1.6,4.1-2.4,6.7-2.4h0.2c2.8,0,4.9,0.8,6.3,2.2C341.5,5.7,342.3,7.2,342.3,8.6L342.3,8.6z M341.8,62.7c0,1.4-0.6,2.7-1.9,3.9
			c-1.8,1.6-4,2.5-6.6,2.5h-0.2c-2.8-0.1-5-1-6.7-2.8c-1.1-1.1-1.7-2.4-1.7-3.7V24.4c0-1.4,0.7-2.7,1.9-3.9c1.7-1.7,3.9-2.5,6.6-2.5
			h0.2c2.8,0,5.1,1,6.7,2.8c1.1,1.2,1.6,2.4,1.6,3.7V62.7z"/>
		<path class="st0" d="M373.2,51.1c-6.3-1.8-11.5-4.2-15.5-6.9c-5.2-3.6-7.8-7.6-7.8-12c0-0.6,0-1.1,0.1-1.7c0.6-3.8,2.8-7,6.9-9.8
			c3.4-2.3,7.5-3.9,12.1-4.7c2.4-0.4,4.8-0.6,7.2-0.6c8.1,0,15.5,2.5,22.3,7.4c1.5,1.1,2.4,2.5,2.7,4v0.7c0,1-0.3,2-1,2.9
			c-1.3,1.8-3.3,3-5.9,3.3c-0.6,0.1-1.1,0.1-1.6,0.1c-2.2,0-4.1-0.6-5.7-1.8c-3.4-2.5-7.1-3.7-10.9-3.7c-1.1,0-2.3,0.1-3.6,0.3
			c-1.1,0.2-2.3,0.6-3.6,1.2c-1.2,0.6-1.9,1.2-2,1.9v0.3c0,0.5,0.4,1.2,1.3,1.9c2,1.8,5.6,3.4,10.8,4.8c6,1.8,10.8,3.9,14.5,6.2
			c5.2,3.4,7.8,7,7.8,10.9c0,0.5,0,1.1-0.1,1.7c-0.7,3.5-3.1,6.3-7.4,8.5c-3.3,1.7-7.1,2.7-11.4,3.1c-1.2,0.1-2.4,0.2-3.7,0.2
			c-8.2,0-16.1-2.2-23.6-6.7c-1.7-1-2.8-2.3-3.2-3.9c-0.1-0.5-0.2-0.9-0.2-1.3c0-0.8,0.4-1.8,1.1-3c0.9-1.5,2.5-2.5,4.8-3
			c0.8-0.3,1.7-0.4,2.7-0.4c1.8,0,3.5,0.5,5.1,1.4c4.4,2.7,8.9,4,13.5,4c0.3,0,0.6,0,0.9,0c2.8-0.1,4.2-0.3,4.4-0.4
			C383.6,54.6,380,53,373.2,51.1z"/>
		<path class="st0" d="M428.2,54.1c2.2,1.6,5,2.3,8.2,2.3c0.3,0,0.6,0,0.9,0c3.9-0.2,7.2-1.2,10-3c1.5-1,3.3-1.5,5.3-1.5
			c0.7,0,1.5,0.1,2.2,0.2c2.5,0.5,4.4,1.7,5.5,3.6c0.6,0.9,0.8,1.8,0.8,2.6c0,0.4,0,0.7-0.1,1.1c-0.4,1.6-1.4,2.9-3,4
			c-5.4,3.5-11.6,5.4-18.6,5.9c-1.1,0.1-2.1,0.1-3.1,0.1c-7.5,0-13.9-1.9-19.4-5.7c-6.2-4.3-9.7-10.2-10.6-17.7
			c-0.1-1.1-0.2-2.2-0.2-3.3c0-5,1.5-9.5,4.4-13.6c4-5.5,9.6-8.9,16.9-10.3c2.2-0.4,4.3-0.7,6.5-0.7c3.8,0,7.5,0.7,11.2,2
			c6.5,2.3,10.7,5.9,12.4,10.7c0.6,1.6,0.9,3.1,0.9,4.5c0,0.5,0,1.1-0.1,1.6c-0.6,4.7-4.7,7.9-12.4,9.6c-3.6,0.8-7.6,1.1-12.2,1.1
			c-1,0-2,0-3,0c-3.5-0.1-5.6-0.2-6.6-0.2c-0.3,0-0.5,0-0.5,0C424,50,425.5,52.2,428.2,54.1z M441.4,34.6c-0.5-1.4-1.7-2.3-3.7-2.8
			c-1.5-0.4-2.9-0.6-4-0.6c-0.7,0-1.4,0.1-2.1,0.2c-2.8,0.6-5.2,2.2-7,4.9c1.1,0.1,2.3,0.1,3.4,0.1C433,36.4,437.5,35.8,441.4,34.6z
			"/>
		<g>
			<path class="st1" d="M99,33.1c0,0-8.9-1.1-13.5-7.6c-4.6-6.5-19.9-6.5-18,12.1c1.9,18.6,13.8,31.3,37.2,32.3
				c23.3,0.9,34.3-27.1,31.7-41.2c-2.7-14-15.9-6.5-21.4-2.7S106.8,34,99,33.1z"/>
			<circle class="st0" cx="80" cy="6.6" r="5.2"/>
			<circle class="st0" cx="122.7" cy="6.6" r="5.2"/>
		</g>
	</g>
	<g>
		<path class="st2" d="M43.8,19.4c-4.3-3.5-8.9-5.2-13.6-5.2c-1.4,0-2.7,0.1-4.1,0.4c-1.8,0.3-3.4,0.9-4.9,1.7
			c-1.8,1-2.9,2.2-3.2,3.6c0,0.2,0,0.4,0,0.7c0,2.1,1.9,4.2,5.8,6.3c2.9,1.6,6.2,3.1,9.8,4.2c7,2.2,12.7,4.8,17.1,7.9
			c5.7,4,8.6,8.3,8.6,12.9c0,0.7-0.1,1.5-0.2,2.3c-0.9,4-3.6,7.3-8.4,9.8c-3.8,2.1-8.1,3.3-13.1,3.7c-1.4,0.1-2.8,0.2-4.1,0.2
			c-9.7,0-19-2.9-27.9-8.7c-1.8-1.1-2.8-2.6-3.1-4.3c-0.1-0.4-0.2-0.8-0.2-1.1c0-1,0.3-2,1-3c1.2-1.9,3.1-3.1,5.7-3.6
			c0.7-0.2,1.5-0.3,2.3-0.3c2.1,0,4,0.6,5.6,1.7c5.5,3.6,11,5.4,16.5,5.4c0.7,0,1.5,0,2.3-0.1c1.1-0.1,2.4-0.4,3.8-0.8
			c1.3-0.4,1.9-0.8,1.9-1.2c0-0.5-0.5-1.2-1.5-1.9c-2.5-2.2-6.7-4.2-12.6-6.1c-7.7-2.4-13.8-5.4-18.3-8.8C2.9,30.7,0,25.8,0,20.7
			c0-0.8,0.1-1.6,0.2-2.5C1,13.8,3.6,10,8.1,6.8c4-2.8,8.6-4.7,14-5.7c2.8-0.5,5.5-0.7,8.2-0.7c9.5,0,18.2,3.1,26.1,9.4
			c1.6,1.2,2.4,2.6,2.6,4.2c0,0.2,0,0.4,0,0.6c0,1.2-0.4,2.4-1.3,3.5c-1.5,1.9-3.6,3-6.3,3.3c-0.4,0.1-0.9,0.1-1.4,0.1
			C47.7,21.5,45.6,20.8,43.8,19.4z"/>
		<path class="st2" d="M159.4,65.3c-1.7,1.3-3.7,1.9-5.9,1.9h-0.1c-2.8-0.1-5-1-6.6-2.7c-1.1-1.2-1.7-2.4-1.7-3.8V23.2
			c0-1.4,0.7-2.7,1.9-3.9c1.7-1.7,3.9-2.5,6.6-2.5h0.2c2.8,0.1,5,1,6.7,2.7c1.1,1.2,1.7,3.5,1.7,7.1c3.5-6.8,9.6-10.2,18.3-10.2h0.3
			c2.9,0,5.8,0.6,8.6,1.7c2.1,0.9,3.5,2.2,4.3,3.9c0.3,0.7,0.4,1.3,0.4,1.9c0,0.6-0.1,1.2-0.4,1.8c-0.7,1.7-2.1,3-4.1,3.9
			c-1.3,0.5-2.7,0.8-4,0.8c-1.3,0-2.6-0.2-3.9-0.7c-0.4-0.2-0.8-0.3-1.1-0.3h-0.1c-3.1,0-6.3,2-9.5,6.1c-4.9,6.1-7.8,14.4-8.6,25
			c0,0.5-0.1,1-0.4,1.5C161.5,63.2,160.7,64.4,159.4,65.3z"/>
		<path class="st2" d="M200.3,18c0-1.4,0.7-2.7,1.9-3.9c1.8-1.7,4-2.6,6.7-2.6c2.7,0.1,5,1,6.7,2.7c1.1,1.2,1.6,3.2,1.6,5.9
			c4.7-6,10.5-8.9,17.4-8.9h0.4c1.8,0,3.7,0.3,5.4,0.7c8.1,2.1,13.8,7,17.1,14.8c0.9,2,1.4,4,1.6,6c0.1,1,0.2,2,0.2,3
			c0,5.2-1.9,9.8-5.7,13.8c-4.3,4.5-10.1,7.7-17.5,9.6c-7.5,1.9-13.7,2.9-18.8,3v17.2c0,1.4-0.6,2.7-1.9,3.8
			c-1.7,1.7-3.9,2.6-6.6,2.6h-0.1c-2.8,0-5-0.9-6.8-2.7c-1.1-1.2-1.7-2.5-1.7-3.9V18z M231.1,46.7c3.4-0.9,6.1-2.1,8-3.8
			c2.2-1.9,3.3-4.4,3.3-7.4c0-0.5,0-1.1-0.1-1.6c-0.4-2.7-1.5-5.1-3.4-7.2c-1.5-1.6-2.8-2.4-4-2.4h-0.1c-3.1,0-6.2,2-9.5,6.1
			c-4.2,5.2-6.8,11.4-7.8,18.8C220.7,48.9,225.3,48.1,231.1,46.7z"/>
		<path class="st2" d="M281.8,65.3c-1.7,1.3-3.7,1.9-5.9,1.9h-0.1c-2.8-0.1-5-1-6.6-2.7c-1.1-1.2-1.7-2.4-1.7-3.8V23.2
			c0-1.4,0.7-2.7,1.9-3.9c1.7-1.7,3.9-2.5,6.6-2.5h0.2c2.8,0.1,5,1,6.7,2.7c1.1,1.2,1.7,3.5,1.7,7.1c3.5-6.8,9.6-10.2,18.3-10.2h0.3
			c2.9,0,5.8,0.6,8.6,1.7c2.1,0.9,3.5,2.2,4.3,3.9c0.3,0.7,0.4,1.3,0.4,1.9c0,0.6-0.1,1.2-0.4,1.8c-0.7,1.7-2.1,3-4.1,3.9
			c-1.3,0.5-2.7,0.8-4,0.8c-1.3,0-2.6-0.2-3.9-0.7c-0.4-0.2-0.8-0.3-1.1-0.3h-0.1c-3.1,0-6.3,2-9.5,6.1c-4.9,6.1-7.8,14.4-8.6,25
			c0,0.5-0.1,1-0.4,1.5C283.9,63.2,283.1,64.4,281.8,65.3z"/>
		<path class="st2" d="M340.3,6.6c-0.2,5-3.1,7.6-8.8,7.6h-0.2c-5.7-0.1-8.5-2.6-8.5-7.4V6.4c0.1-1.4,0.8-2.7,2.1-4
			c1.8-1.6,4.1-2.4,6.7-2.4h0.2c2.8,0,4.9,0.8,6.3,2.2C339.5,3.7,340.3,5.2,340.3,6.6L340.3,6.6z M339.8,60.7c0,1.4-0.6,2.7-1.9,3.9
			c-1.8,1.6-4,2.5-6.6,2.5h-0.2c-2.8-0.1-5-1-6.7-2.8c-1.1-1.1-1.7-2.4-1.7-3.7V22.4c0-1.4,0.7-2.7,1.9-3.9c1.7-1.7,3.9-2.5,6.6-2.5
			h0.2c2.8,0,5.1,1,6.7,2.8c1.1,1.2,1.6,2.4,1.6,3.7V60.7z"/>
		<path class="st2" d="M371.2,49.1c-6.3-1.8-11.5-4.2-15.5-6.9c-5.2-3.6-7.8-7.6-7.8-12c0-0.6,0-1.1,0.1-1.7c0.6-3.8,2.8-7,6.9-9.8
			c3.4-2.3,7.5-3.9,12.1-4.7c2.4-0.4,4.8-0.6,7.2-0.6c8.1,0,15.5,2.5,22.3,7.4c1.5,1.1,2.4,2.5,2.7,4v0.7c0,1-0.3,2-1,2.9
			c-1.3,1.8-3.3,3-5.9,3.3c-0.6,0.1-1.1,0.1-1.6,0.1c-2.2,0-4.1-0.6-5.7-1.8c-3.4-2.5-7.1-3.7-10.9-3.7c-1.1,0-2.3,0.1-3.6,0.3
			c-1.1,0.2-2.3,0.6-3.6,1.2c-1.2,0.6-1.9,1.2-2,1.9v0.3c0,0.5,0.4,1.2,1.3,1.9c2,1.8,5.6,3.4,10.8,4.8c6,1.8,10.8,3.9,14.5,6.2
			c5.2,3.4,7.8,7,7.8,10.9c0,0.5,0,1.1-0.1,1.7c-0.7,3.5-3.1,6.3-7.4,8.5c-3.3,1.7-7.1,2.7-11.4,3.1c-1.2,0.1-2.4,0.2-3.7,0.2
			c-8.2,0-16.1-2.2-23.6-6.7c-1.7-1-2.8-2.3-3.2-3.9c-0.1-0.5-0.2-0.9-0.2-1.3c0-0.8,0.4-1.8,1.1-3c0.9-1.5,2.5-2.5,4.8-3
			c0.8-0.3,1.7-0.4,2.7-0.4c1.8,0,3.5,0.5,5.1,1.4c4.4,2.7,8.9,4,13.5,4c0.3,0,0.6,0,0.9,0c2.8-0.1,4.2-0.3,4.4-0.4
			C381.6,52.6,378,51,371.2,49.1z"/>
		<path class="st2" d="M426.2,52.1c2.2,1.6,5,2.3,8.2,2.3c0.3,0,0.6,0,0.9,0c3.9-0.2,7.2-1.2,10-3c1.5-1,3.3-1.5,5.3-1.5
			c0.7,0,1.5,0.1,2.2,0.2c2.5,0.5,4.4,1.7,5.5,3.6c0.6,0.9,0.8,1.8,0.8,2.6c0,0.4,0,0.7-0.1,1.1c-0.4,1.6-1.4,2.9-3,4
			c-5.4,3.5-11.6,5.4-18.6,5.9c-1.1,0.1-2.1,0.1-3.1,0.1c-7.5,0-13.9-1.9-19.4-5.7c-6.2-4.3-9.7-10.2-10.6-17.7
			c-0.1-1.1-0.2-2.2-0.2-3.3c0-5,1.5-9.5,4.4-13.6c4-5.5,9.6-8.9,16.9-10.3c2.2-0.4,4.3-0.7,6.5-0.7c3.8,0,7.5,0.7,11.2,2
			c6.5,2.3,10.7,5.9,12.4,10.7c0.6,1.6,0.9,3.1,0.9,4.5c0,0.5,0,1.1-0.1,1.6c-0.6,4.7-4.7,7.9-12.4,9.6c-3.6,0.8-7.6,1.1-12.2,1.1
			c-1,0-2,0-3,0c-3.5-0.1-5.6-0.2-6.6-0.2c-0.3,0-0.5,0-0.5,0C422,48,423.5,50.2,426.2,52.1z M439.4,32.6c-0.5-1.4-1.7-2.3-3.7-2.8
			c-1.5-0.4-2.9-0.6-4-0.6c-0.7,0-1.4,0.1-2.1,0.2c-2.8,0.6-5.2,2.2-7,4.9c1.1,0.1,2.3,0.1,3.4,0.1C431,34.4,435.5,33.8,439.4,32.6z
			"/>
		<g>
			<path class="st3" d="M97,31.1c0,0-8.9-1.1-13.5-7.6c-4.6-6.5-19.9-6.5-18,12.1c1.9,18.6,13.8,31.3,37.2,32.3
				c23.3,0.9,34.3-27.1,31.7-41.2s-15.9-6.5-21.4-2.7S104.8,32,97,31.1z"/>
			<circle class="st2" cx="79.2" cy="5.6" r="5.2"/>
			<circle class="st2" cx="121.9" cy="5.6" r="5.2"/>
		</g>
	</g>
</g>
</svg>
